<?xml version="1.0" encoding="utf-8"?>
<!DOCTYPE svg PUBLIC "-//W3C//DTD SVG 1.1//EN" "http://www.w3.org/Graphics/SVG/1.1/DTD/svg11.dtd" [
<!ENTITY ns_svg "http://www.w3.org/2000/svg">
<!ENTITY ns_xlink "http://www.w3.org/1999/xlink">
]>
<svg  version="1.1" id="Layer_1" xmlns="&ns_svg;" xmlns:xlink="&ns_xlink;" width="104.121" height="151.188"
viewBox="0 0 104.121 151.188" overflow="visible" enable-background="new 0 0 104.121 151.188" xml:space="preserve">
<g>
<defs>
<rect id="XMLID_1_" width="104.121" height="151.186"/>
</defs>
<clipPath id="XMLID_3_">
<use xlink:href="#XMLID_1_" />
</clipPath>
<path clip-path="url(#XMLID_3_)" fill="#FFFFFF" d="M85.329,129.945L85.329,129.945z M83.266,131.927l0.024-0.023l-0.042,0.04
c0,0,0.009-0.008,0.014-0.013L83.266,131.927"/>
<path clip-path="url(#XMLID_3_)" fill="#FFFFFF" d="M99.411,44.058C92.389,18.255,75.068,0.001,54.814,0.001
C28.34,0.001,6.877,31.188,6.877,69.66c0,38.438,21.426,69.61,47.869,69.658v0.002c0.01,0,0.022-0.002,0.035-0.002
s0.023,0.002,0.033,0.002c0.046,0,0.088-0.002,0.129-0.002c8.896-0.053,17.212-3.571,24.33-9.7l0,0
c0.004-0.004,0.011-0.009,0.015-0.011c0.345-0.3,0.688-0.604,1.03-0.916c0.013-0.008,0.025-0.021,0.039-0.035
c0.319-0.292,0.638-0.59,0.952-0.894c0.044-0.042,0.092-0.087,0.136-0.129c0.258-0.252,0.517-0.508,0.774-0.767
c0.191-0.193,0.383-0.392,0.574-0.592c0.075-0.079,0.146-0.153,0.222-0.23c4.152-4.367,7.817-9.636,10.896-15.583
c-8.276,20.607-22.991,35.564-41.033,35.564c-26.521,0-49.315-33.145-48.975-74.026C4.145,42.46,15.379,19.4,29.622,7.811
C12.195,20.041,0,45.529,0,75.536c0,41.78,23.308,75.652,52.062,75.652c28.751,0,52.06-33.872,52.06-75.652
C104.121,64.301,102.435,53.643,99.411,44.058"/>
<path clip-path="url(#XMLID_3_)" fill="#184F9D" d="M32.111,63.218h-7.618l-1.41,4.805l8.184,0.004
c1.905,0,3.481-1.038,3.718-2.381C35.227,64.27,34.019,63.218,32.111,63.218"/>
<path clip-path="url(#XMLID_3_)" fill="#184F9D" d="M32.621,55.544h-5.947l-1.181,4.336h6.368c1.868,0,3.036-1.018,3.242-2.178
C35.301,56.573,34.491,55.544,32.621,55.544"/>
<path clip-path="url(#XMLID_3_)" fill="#184F9D" d="M99.411,44.058C92.389,18.255,75.068,0.001,54.814,0.001
C28.34,0.001,6.877,31.188,6.877,69.66c0,38.471,21.462,69.664,47.937,69.66c0.412-0.002,0.825-0.015,1.234-0.029l-7.045-8.917
l15.419-19.533l-15.45-19.531l15.436-19.536L58.74,55.532h-7.405l-1.246,4.315l8.637,0.024l-1.683,3.359h-7.941l-2.373,8.156
h-4.252l1.437-8.156h-5.085c0.395,0.716,0.556,1.577,0.376,2.597c-0.603,3.42-4.021,5.56-8.054,5.56H18.03l1.437-8.156h-3.841
l1.685-3.359h2.749l1.352-7.665H33.69c3.52,0,6.331,1.709,5.728,5.13c-0.173,0.983-0.672,1.845-1.39,2.535h6.478l1.352-7.665h17.55
l2.446,11.729l6.829-11.718l7.205,0.008l13.413-17.004c4.592,12.358,6.479,22.958,7.197,29.961l-5.205,6.587l5.407,6.845
c-0.642,11.218-2.899,21.723-6.425,30.938L79.85,91.307L64.423,110.84l14.851,18.777c5.716-4.921,10.664-11.483,14.638-19.156
c-8.276,20.607-22.991,35.564-41.033,35.564c-26.521,0-49.315-33.145-48.975-74.026C4.145,42.46,15.379,19.4,29.622,7.811
C12.195,20.041,0,45.529,0,75.536c0,41.78,23.308,75.652,52.062,75.652c28.751,0,52.06-33.872,52.06-75.652
C104.121,64.301,102.435,53.643,99.411,44.058"/>
<polygon clip-path="url(#XMLID_3_)" fill="#184F9D" points="95.291,71.77 79.888,52.226 64.406,71.774 79.85,91.307 	"/>
</g>
</svg>
